# xmcd CD database file generated by Grip 2.7
# 
# Track frame offsets:
#       150
#       16692
#       28007
#       38302
#       54180
#       69777
# 
# Disc length: 1170 seconds
# 
# Revision: 3
# Processed by: cddbd v1.4b41PL1 Copyright (c) Steve Scherf et al.
# Submitted via: Grip 2.7
# 
DISCID=32049006
DTITLE=Sparklehorse - Distorted Ghost EP
DYEAR=1900
DGENRE=
TTITLE0=Happy Man (EV11 Mix)
TTITLE1=Waiting For Nothing
TTITLE2=Happy Place
TTITLE3=My Yoke Is Heavy
TTITLE4=Gasoline Horseys
TTITLE5=Happy Pig
EXTD=limited edition promo given away with Good Morning Spider
EXTT0=
EXTT1=
EXTT2=
EXTT3=
EXTT4=
EXTT5=
PLAYORDER=
